<svg xmlns="http://www.w3.org/2000/svg" width="600" height="600"><rect fill="#C12026" width="600" height="600"/><path fill="#B21E23" d="M44.329 104.221l.004-.014c-1.17-3.269-2.293-6.614-4.006-9.568-11.506-19.834-59.299-47.698-59.299-47.698s1.077 8.289 4.763 16.178l-8.794-2.752s2.9 4.966 7.737 9.696c-4.195-.191-7.845.399-7.845.399s3.39 4.035 7.537 5.997c-3.068.375-8.297 2.167-8.297 2.167s1.962 3.644 3.868 4.972c-16.272 6.186-21.961 16.667-39.913 40.138 10.318 2.646 18.634 27.388 18.634 27.388s16.45 42.197 17 42.436c35.526-22.787 78.667-27.356 78.667-27.356s-6.364-11.729-7.546-12.797c-.468-.423-1.047-1.001-1.547-1.816l-.562-.723-.681-.899c-2.688-4.189-5.104-9.678-2.485-13.794.224-.353.392-.569.62-.91"/><path fill="#A41B20" d="M48.887 114.041l-.025-.059c-.694-.772-1.193-1.866-1.806-3.084l.004-.012c-1.073-2.081-1.896-4.353-2.73-6.666-8.894 9.584-23.265-4.651-31.762 6.953-6.048 10.127 15.935 42.074 34.274 42.232-.503-.69-1.036-1.41-1.549-2.157l-.448-.653.008-.008c-2.945-4.461-5.196-9.74-3.261-14.227.166-.39.367-.757.595-1.098"/><path fill="#B21E23" d="M34.577 129.574c2.218 3.006 4.572 3.826 7.608 5.689 11.705-5.674 17.731-10.154 17.731-10.154s-3.164-6.812-10.111-10.36c-.367-.188-.669-.458-.944-.767l.025.059c-7.134 4.946-20.921 6.53-14.309 15.533z"/><path fill="#C12026" d="M16.58 115.445c-.384 2.543 1.363 4.925 3.909 5.312 2.547.387 4.921-1.359 5.309-3.906.39-2.547-1.361-4.925-3.903-5.311-2.545-.39-4.925 1.362-5.315 3.905z"/><path fill="#B21E23" d="M44.329 283.971l.004-.014c-1.17-3.269-2.293-6.612-4.006-9.568-11.506-19.834-59.299-47.697-59.299-47.697s1.077 8.289 4.763 16.178l-8.794-2.752s2.9 4.966 7.737 9.696c-4.195-.191-7.845.399-7.845.399s3.39 4.035 7.537 5.997c-3.068.375-8.297 2.167-8.297 2.167s1.962 3.644 3.868 4.972c-16.272 6.187-21.961 16.667-39.913 40.138 10.318 2.646 18.634 27.39 18.634 27.39s16.45 42.195 17 42.433c35.526-22.786 78.667-27.356 78.667-27.356s-6.364-11.728-7.546-12.796c-.468-.424-1.047-1.001-1.547-1.816l-.562-.722-.681-.9c-2.688-4.19-5.104-9.679-2.485-13.794.224-.351.392-.569.62-.908"/><path fill="#A41B20" d="M48.887 293.791l-.025-.059c-.694-.772-1.193-1.864-1.806-3.084l.004-.01c-1.073-2.083-1.896-4.353-2.73-6.668-8.894 9.586-23.265-4.651-31.762 6.953-6.048 10.126 15.935 42.074 34.274 42.232-.503-.69-1.036-1.41-1.549-2.155l-.448-.655.008-.008c-2.945-4.461-5.196-9.74-3.261-14.227.166-.391.367-.757.595-1.096"/><path fill="#B21E23" d="M34.577 309.324c2.218 3.005 4.572 3.826 7.608 5.691 11.705-5.676 17.731-10.156 17.731-10.156s-3.164-6.812-10.111-10.358c-.367-.188-.669-.46-.944-.769l.025.059c-7.134 4.946-20.921 6.53-14.309 15.533z"/><path fill="#C12026" d="M16.58 295.195c-.384 2.543 1.363 4.925 3.909 5.312 2.547.387 4.921-1.359 5.309-3.904.39-2.547-1.361-4.927-3.903-5.312-2.545-.391-4.925 1.361-5.315 3.904z"/><path fill="#B21E23" d="M44.329 463.721l.004-.014c-1.17-3.27-2.293-6.612-4.006-9.569-11.506-19.833-59.299-47.695-59.299-47.695s1.077 8.288 4.763 16.177l-8.794-2.75s2.9 4.964 7.737 9.693c-4.195-.19-7.845.402-7.845.402s3.39 4.033 7.537 5.995c-3.068.375-8.297 2.167-8.297 2.167s1.962 3.644 3.868 4.972c-16.272 6.187-21.961 16.666-39.913 40.138 10.318 2.646 18.634 27.39 18.634 27.39s16.45 42.195 17 42.433c35.526-22.786 78.667-27.356 78.667-27.356s-6.364-11.728-7.546-12.796c-.468-.424-1.047-1.001-1.547-1.816l-.562-.722-.681-.9c-2.688-4.19-5.104-9.679-2.485-13.794.224-.351.392-.569.62-.908"/><path fill="#A41B20" d="M48.887 473.541l-.025-.059c-.694-.772-1.193-1.865-1.806-3.084l.004-.01c-1.073-2.083-1.896-4.354-2.73-6.668-8.894 9.586-23.265-4.652-31.762 6.953-6.048 10.126 15.935 42.074 34.274 42.232-.503-.69-1.036-1.41-1.549-2.155l-.448-.655.008-.008c-2.945-4.461-5.196-9.74-3.261-14.227.166-.391.367-.757.595-1.096"/><path fill="#B21E23" d="M34.577 489.074c2.218 3.005 4.572 3.826 7.608 5.691 11.705-5.676 17.731-10.156 17.731-10.156s-3.164-6.812-10.111-10.358c-.367-.188-.669-.461-.944-.769l.025.059c-7.134 4.946-20.921 6.529-14.309 15.533z"/><path fill="#C12026" d="M16.58 474.945c-.384 2.543 1.363 4.925 3.909 5.312 2.547.387 4.921-1.359 5.309-3.904.39-2.548-1.361-4.927-3.903-5.313-2.545-.39-4.925 1.361-5.315 3.905z"/><path fill="#B21E23" d="M645.455 104.219l.004-.012c-1.17-3.271-2.293-6.614-4.006-9.569-11.506-19.835-59.299-47.697-59.299-47.697s1.077 8.288 4.764 16.179l-8.795-2.752s2.9 4.964 7.737 9.695c-4.195-.191-7.845.4-7.845.4s3.39 4.034 7.537 5.998c-3.068.375-8.298 2.165-8.298 2.165s1.963 3.644 3.868 4.974c-16.272 6.185-21.962 16.664-39.913 40.135 10.317 2.649 18.634 27.39 18.634 27.39s16.45 42.195 17 42.436c35.526-22.789 78.668-27.357 78.668-27.357s-6.364-11.729-7.546-12.798c-.469-.421-1.048-.999-1.547-1.814l-.562-.724-.681-.899c-2.688-4.191-5.104-9.68-2.485-13.795l.62-.909"/><path fill="#A41B20" d="M650.014 114.039l-.025-.059c-.694-.771-1.194-1.864-1.807-3.083l.004-.01c-1.072-2.083-1.896-4.354-2.73-6.668-8.894 9.586-23.265-4.65-31.763 6.955-6.048 10.126 15.936 42.072 34.275 42.23-.504-.69-1.036-1.41-1.549-2.155l-.448-.653.008-.008c-2.945-4.462-5.196-9.742-3.262-14.226.166-.392.367-.757.595-1.098"/><path fill="#B21E23" d="M635.703 129.574c2.218 3.003 4.572 3.827 7.608 5.689 11.705-5.676 17.731-10.156 17.731-10.156s-3.164-6.811-10.111-10.359c-.366-.187-.669-.46-.943-.769l.025.059c-7.134 4.949-20.921 6.531-14.31 15.536z"/><path fill="#C12026" d="M617.707 115.443c-.385 2.543 1.363 4.925 3.908 5.313 2.548.388 4.921-1.359 5.31-3.905.39-2.547-1.361-4.925-3.903-5.313-2.545-.39-4.925 1.364-5.315 3.905z"/><path fill="#B21E23" d="M645.455 283.971l.004-.014c-1.17-3.271-2.293-6.614-4.006-9.569-11.506-19.835-59.299-47.697-59.299-47.697s1.077 8.288 4.764 16.179l-8.795-2.752s2.9 4.964 7.737 9.695c-4.195-.191-7.845.4-7.845.4s3.39 4.034 7.537 5.998c-3.068.375-8.298 2.165-8.298 2.165s1.963 3.644 3.868 4.974c-16.272 6.185-21.962 16.666-39.913 40.137 10.317 2.646 18.634 27.389 18.634 27.389s16.45 42.195 17 42.434c35.526-22.785 78.668-27.355 78.668-27.355s-6.364-11.729-7.546-12.797c-.469-.424-1.048-1-1.547-1.816l-.562-.723-.681-.9c-2.688-4.191-5.104-9.68-2.485-13.795l.62-.908"/><path fill="#A41B20" d="M650.014 293.789l-.025-.059c-.694-.771-1.194-1.865-1.807-3.082l.004-.012c-1.072-2.083-1.896-4.354-2.73-6.667-8.894 9.584-23.265-4.652-31.763 6.953-6.048 10.127 15.936 42.072 34.275 42.232-.504-.691-1.036-1.412-1.549-2.156l-.448-.654.008-.008c-2.945-4.461-5.196-9.742-3.262-14.227.166-.393.367-.756.595-1.098"/><path fill="#B21E23" d="M635.703 309.324c2.218 3.006 4.572 3.826 7.608 5.689 11.705-5.676 17.731-10.154 17.731-10.154s-3.164-6.812-10.111-10.36c-.366-.187-.669-.46-.943-.769l.025.059c-7.134 4.948-20.921 6.53-14.31 15.535z"/><path fill="#C12026" d="M617.707 295.193c-.385 2.543 1.363 4.927 3.908 5.313 2.548.388 4.921-1.357 5.31-3.905.39-2.547-1.361-4.925-3.903-5.313-2.545-.39-4.925 1.364-5.315 3.905z"/><path fill="#B21E23" d="M645.455 463.721l.004-.014c-1.17-3.271-2.293-6.613-4.006-9.568-11.506-19.834-59.299-47.697-59.299-47.697s1.077 8.289 4.764 16.178l-8.795-2.752s2.9 4.967 7.737 9.695c-4.195-.191-7.845.4-7.845.4s3.39 4.033 7.537 5.998c-3.068.375-8.298 2.166-8.298 2.166s1.963 3.645 3.868 4.973c-16.272 6.184-21.962 16.666-39.913 40.137 10.317 2.646 18.634 27.389 18.634 27.389s16.45 42.195 17 42.434c35.526-22.785 78.668-27.355 78.668-27.355s-6.364-11.729-7.546-12.797c-.469-.424-1.048-1-1.547-1.816l-.562-.723-.681-.9c-2.688-4.191-5.104-9.68-2.485-13.795l.62-.908"/><path fill="#A41B20" d="M650.014 473.539l-.025-.059c-.694-.77-1.194-1.865-1.807-3.082l.004-.012c-1.072-2.082-1.896-4.354-2.73-6.666-8.894 9.584-23.265-4.652-31.763 6.953-6.048 10.127 15.936 42.072 34.275 42.232-.504-.691-1.036-1.412-1.549-2.156l-.448-.654.008-.008c-2.945-4.461-5.196-9.742-3.262-14.227.166-.393.367-.756.595-1.098"/><path fill="#B21E23" d="M635.703 489.074c2.218 3.006 4.572 3.826 7.608 5.689 11.705-5.676 17.731-10.154 17.731-10.154s-3.164-6.812-10.111-10.359c-.366-.188-.669-.461-.943-.77l.025.059c-7.134 4.949-20.921 6.529-14.31 15.535z"/><path fill="#C12026" d="M617.707 474.943c-.385 2.543 1.363 4.928 3.908 5.312 2.548.389 4.921-1.357 5.31-3.904.39-2.547-1.361-4.924-3.903-5.312-2.545-.391-4.925 1.363-5.315 3.904z"/><path fill="#B21E23" d="M204.328 194.219l.004-.012c-1.17-3.271-2.293-6.614-4.006-9.569-11.506-19.835-59.298-47.697-59.298-47.697s1.077 8.288 4.764 16.179l-8.795-2.752s2.9 4.964 7.737 9.695c-4.195-.191-7.845.4-7.845.4s3.39 4.034 7.537 5.998c-3.068.375-8.298 2.165-8.298 2.165s1.963 3.644 3.868 4.974c-16.272 6.185-21.962 16.664-39.913 40.135 10.317 2.649 18.634 27.39 18.634 27.39s16.45 42.195 17 42.436c35.527-22.789 78.667-27.357 78.667-27.357s-6.363-11.729-7.545-12.798c-.469-.421-1.049-.999-1.547-1.814l-.562-.724-.68-.899c-2.689-4.191-5.105-9.68-2.486-13.795.225-.351.393-.567.621-.909"/><path fill="#A41B20" d="M208.887 204.039l-.025-.059c-.693-.771-1.193-1.864-1.807-3.083l.004-.01c-1.072-2.083-1.895-4.354-2.73-6.668-8.893 9.586-23.264-4.65-31.762 6.955-6.049 10.126 15.936 42.072 34.275 42.23-.504-.69-1.037-1.41-1.549-2.155l-.449-.653.008-.008c-2.945-4.462-5.195-9.742-3.262-14.226.166-.392.367-.757.596-1.098"/><path fill="#B21E23" d="M194.576 219.574c2.219 3.003 4.572 3.827 7.609 5.689 11.705-5.676 17.73-10.156 17.73-10.156s-3.164-6.811-10.111-10.359c-.365-.187-.668-.46-.943-.769l.025.059c-7.134 4.949-20.921 6.531-14.31 15.536z"/><path fill="#C12026" d="M176.58 205.443c-.385 2.543 1.363 4.925 3.908 5.313 2.549.388 4.922-1.359 5.311-3.905.389-2.547-1.361-4.925-3.904-5.313-2.545-.39-4.924 1.364-5.315 3.905z"/><path fill="#B21E23" d="M204.328 373.971l.004-.014c-1.17-3.271-2.293-6.613-4.006-9.568-11.506-19.836-59.298-47.697-59.298-47.697s1.077 8.287 4.764 16.178l-8.795-2.752s2.9 4.965 7.737 9.695c-4.195-.19-7.845.4-7.845.4s3.39 4.033 7.537 5.998c-3.068.374-8.298 2.164-8.298 2.164s1.963 3.645 3.868 4.975c-16.272 6.184-21.962 16.666-39.913 40.137 10.317 2.646 18.634 27.389 18.634 27.389s16.45 42.195 17 42.434c35.527-22.785 78.667-27.355 78.667-27.355s-6.363-11.729-7.545-12.797c-.469-.424-1.049-1-1.547-1.816l-.562-.723-.68-.9c-2.689-4.191-5.105-9.68-2.486-13.795l.621-.908"/><path fill="#A41B20" d="M208.887 383.789l-.025-.059c-.693-.771-1.193-1.865-1.807-3.082l.004-.012c-1.072-2.082-1.895-4.354-2.73-6.666-8.893 9.584-23.264-4.652-31.762 6.953-6.049 10.127 15.936 42.072 34.275 42.232-.504-.691-1.037-1.412-1.549-2.156l-.449-.654.008-.008c-2.945-4.461-5.195-9.742-3.262-14.227.166-.393.367-.756.596-1.098"/><path fill="#B21E23" d="M194.576 399.324c2.219 3.006 4.572 3.826 7.609 5.689 11.705-5.676 17.73-10.154 17.73-10.154s-3.164-6.812-10.111-10.36c-.365-.187-.668-.46-.943-.769l.025.059c-7.134 4.948-20.921 6.529-14.31 15.535z"/><path fill="#C12026" d="M176.58 385.193c-.385 2.543 1.363 4.927 3.908 5.312 2.549.389 4.922-1.357 5.311-3.904s-1.361-4.925-3.904-5.312c-2.545-.391-4.924 1.363-5.315 3.904z"/><path fill="#B21E23" d="M204.328 553.721l.004-.014c-1.17-3.271-2.293-6.613-4.006-9.568-11.506-19.834-59.298-47.697-59.298-47.697s1.077 8.289 4.764 16.178l-8.795-2.752s2.9 4.967 7.737 9.695c-4.195-.191-7.845.4-7.845.4s3.39 4.033 7.537 5.998c-3.068.375-8.298 2.166-8.298 2.166s1.963 3.645 3.868 4.973c-16.272 6.184-21.962 16.666-39.913 40.137 10.317 2.646 18.634 27.389 18.634 27.389s16.45 42.195 17 42.434c35.527-22.785 78.667-27.355 78.667-27.355s-6.363-11.729-7.545-12.797c-.469-.424-1.049-1-1.547-1.816l-.562-.723-.68-.9c-2.689-4.191-5.105-9.68-2.486-13.795l.621-.908"/><path fill="#A41B20" d="M208.887 563.539l-.025-.059c-.693-.77-1.193-1.865-1.807-3.082l.004-.012c-1.072-2.082-1.895-4.354-2.73-6.666-8.893 9.584-23.264-4.652-31.762 6.953-6.049 10.127 15.936 42.072 34.275 42.232-.504-.691-1.037-1.412-1.549-2.156l-.449-.654.008-.008c-2.945-4.461-5.195-9.742-3.262-14.227.166-.393.367-.756.596-1.098"/><path fill="#B21E23" d="M194.576 579.074c2.219 3.006 4.572 3.826 7.609 5.689 11.705-5.676 17.73-10.154 17.73-10.154s-3.164-6.812-10.111-10.359c-.365-.188-.668-.461-.943-.77l.025.059c-7.134 4.949-20.921 6.529-14.31 15.535z"/><path fill="#C12026" d="M176.58 564.943c-.385 2.543 1.363 4.928 3.908 5.312 2.549.389 4.922-1.357 5.311-3.904s-1.361-4.924-3.904-5.312c-2.545-.391-4.924 1.363-5.315 3.904z"/><path fill="#B21E23" d="M204.328 14.219l.004-.012c-1.17-3.271-2.293-6.614-4.006-9.569-11.506-19.835-59.298-47.697-59.298-47.697s1.077 8.288 4.764 16.179l-8.795-2.752s2.9 4.964 7.737 9.695c-4.195-.191-7.845.4-7.845.4s3.39 4.034 7.537 5.998c-3.068.375-8.298 2.165-8.298 2.165s1.963 3.644 3.868 4.974c-16.272 6.185-21.962 16.664-39.913 40.135 10.317 2.649 18.634 27.39 18.634 27.39s16.45 42.195 17 42.436c35.527-22.789 78.667-27.357 78.667-27.357s-6.363-11.729-7.545-12.798c-.469-.421-1.049-.999-1.547-1.814l-.562-.724-.68-.899c-2.689-4.191-5.105-9.68-2.486-13.795.225-.351.393-.567.621-.909"/><path fill="#A41B20" d="M208.887 24.039l-.025-.059c-.693-.771-1.193-1.864-1.807-3.083l.004-.01c-1.072-2.083-1.895-4.354-2.73-6.668-8.893 9.586-23.264-4.65-31.762 6.955-6.049 10.126 15.936 42.072 34.275 42.23-.504-.69-1.037-1.41-1.549-2.155l-.449-.653.008-.008c-2.945-4.462-5.195-9.742-3.262-14.226.166-.392.367-.757.596-1.098"/><path fill="#B21E23" d="M194.576 39.574c2.219 3.003 4.572 3.827 7.609 5.689 11.705-5.676 17.73-10.156 17.73-10.156s-3.164-6.811-10.111-10.359c-.365-.187-.668-.46-.943-.769l.025.059c-7.134 4.949-20.921 6.531-14.31 15.536z"/><path fill="#C12026" d="M176.58 25.443c-.385 2.543 1.363 4.925 3.908 5.313 2.549.388 4.922-1.359 5.311-3.905.389-2.547-1.361-4.925-3.904-5.313-2.545-.39-4.924 1.364-5.315 3.905z"/><path fill="#B21E23" d="M484.328 194.219l.004-.012c-1.17-3.271-2.293-6.613-4.006-9.568-11.506-19.836-59.298-47.697-59.298-47.697s1.077 8.287 4.764 16.179l-8.795-2.752s2.9 4.964 7.737 9.695c-4.195-.191-7.845.399-7.845.399s3.39 4.034 7.537 5.998c-3.068.374-8.298 2.165-8.298 2.165s1.963 3.644 3.868 4.974c-16.272 6.185-21.962 16.664-39.913 40.135 10.317 2.649 18.634 27.39 18.634 27.39s16.45 42.195 17 42.436c35.526-22.789 78.667-27.356 78.667-27.356s-6.363-11.729-7.545-12.799c-.469-.421-1.049-.998-1.547-1.813l-.562-.724-.68-.899c-2.689-4.191-5.105-9.68-2.486-13.795.225-.352.393-.567.621-.909"/><path fill="#A41B20" d="M488.887 204.039l-.025-.059c-.693-.771-1.193-1.864-1.807-3.083l.004-.01c-1.072-2.083-1.895-4.354-2.73-6.669-8.893 9.587-23.264-4.649-31.762 6.955-6.049 10.127 15.936 42.072 34.275 42.23-.504-.69-1.037-1.41-1.549-2.155l-.449-.653.008-.008c-2.945-4.462-5.195-9.742-3.262-14.226.166-.393.367-.757.596-1.099"/><path fill="#B21E23" d="M474.576 219.574c2.219 3.004 4.572 3.827 7.609 5.689 11.705-5.676 17.73-10.155 17.73-10.155s-3.164-6.812-10.111-10.359c-.365-.187-.668-.46-.943-.769l.025.059c-7.134 4.948-20.921 6.53-14.31 15.535z"/><path fill="#C12026" d="M456.58 205.443c-.385 2.544 1.363 4.925 3.908 5.313 2.549.388 4.922-1.359 5.311-3.905.389-2.547-1.361-4.925-3.904-5.312-2.545-.391-4.924 1.363-5.315 3.904z"/><path fill="#B21E23" d="M484.328 373.971l.004-.014c-1.17-3.271-2.293-6.613-4.006-9.568-11.506-19.836-59.298-47.697-59.298-47.697s1.077 8.287 4.764 16.178l-8.795-2.752s2.9 4.965 7.737 9.695c-4.195-.19-7.845.4-7.845.4s3.39 4.033 7.537 5.998c-3.068.374-8.298 2.164-8.298 2.164s1.963 3.645 3.868 4.975c-16.272 6.184-21.962 16.666-39.913 40.137 10.317 2.646 18.634 27.389 18.634 27.389s16.45 42.195 17 42.434c35.526-22.785 78.667-27.355 78.667-27.355s-6.363-11.729-7.545-12.797c-.469-.424-1.049-1-1.547-1.816l-.562-.723-.68-.9c-2.689-4.191-5.105-9.68-2.486-13.795l.621-.908"/><path fill="#A41B20" d="M488.887 383.789l-.025-.059c-.693-.771-1.193-1.865-1.807-3.082l.004-.012c-1.072-2.082-1.895-4.354-2.73-6.666-8.893 9.584-23.264-4.652-31.762 6.953-6.049 10.127 15.936 42.072 34.275 42.232-.504-.691-1.037-1.412-1.549-2.156l-.449-.654.008-.008c-2.945-4.461-5.195-9.742-3.262-14.227.166-.393.367-.756.596-1.098"/><path fill="#B21E23" d="M474.576 399.324c2.219 3.006 4.572 3.826 7.609 5.689 11.705-5.676 17.73-10.154 17.73-10.154s-3.164-6.812-10.111-10.36c-.365-.187-.668-.46-.943-.769l.025.059c-7.134 4.948-20.921 6.529-14.31 15.535z"/><path fill="#C12026" d="M456.58 385.193c-.385 2.543 1.363 4.927 3.908 5.312 2.549.389 4.922-1.357 5.311-3.904s-1.361-4.925-3.904-5.312c-2.545-.391-4.924 1.363-5.315 3.904z"/><path fill="#B21E23" d="M484.328 553.721l.004-.014c-1.17-3.271-2.293-6.613-4.006-9.568-11.506-19.834-59.298-47.697-59.298-47.697s1.077 8.289 4.764 16.178l-8.795-2.752s2.9 4.967 7.737 9.695c-4.195-.191-7.845.4-7.845.4s3.39 4.033 7.537 5.998c-3.068.375-8.298 2.166-8.298 2.166s1.963 3.645 3.868 4.973c-16.272 6.184-21.962 16.666-39.913 40.137 10.317 2.646 18.634 27.389 18.634 27.389s16.45 42.195 17 42.434c35.526-22.785 78.667-27.355 78.667-27.355s-6.363-11.729-7.545-12.797c-.469-.424-1.049-1-1.547-1.816l-.562-.723-.68-.9c-2.689-4.191-5.105-9.68-2.486-13.795l.621-.908"/><path fill="#A41B20" d="M488.887 563.539l-.025-.059c-.693-.77-1.193-1.865-1.807-3.082l.004-.012c-1.072-2.082-1.895-4.354-2.73-6.666-8.893 9.584-23.264-4.652-31.762 6.953-6.049 10.127 15.936 42.072 34.275 42.232-.504-.691-1.037-1.412-1.549-2.156l-.449-.654.008-.008c-2.945-4.461-5.195-9.742-3.262-14.227.166-.393.367-.756.596-1.098"/><path fill="#B21E23" d="M474.576 579.074c2.219 3.006 4.572 3.826 7.609 5.689 11.705-5.676 17.73-10.154 17.73-10.154s-3.164-6.812-10.111-10.359c-.365-.188-.668-.461-.943-.77l.025.059c-7.134 4.949-20.921 6.529-14.31 15.535z"/><path fill="#C12026" d="M456.58 564.943c-.385 2.543 1.363 4.928 3.908 5.312 2.549.389 4.922-1.357 5.311-3.904s-1.361-4.924-3.904-5.312c-2.545-.391-4.924 1.363-5.315 3.904z"/><path fill="#B21E23" d="M484.328 14.219l.004-.012c-1.17-3.271-2.293-6.613-4.006-9.568-11.506-19.836-59.298-47.697-59.298-47.697s1.077 8.287 4.764 16.179l-8.795-2.752s2.9 4.964 7.737 9.695c-4.195-.191-7.845.399-7.845.399s3.39 4.034 7.537 5.998c-3.068.374-8.298 2.165-8.298 2.165s1.963 3.644 3.868 4.974c-16.272 6.185-21.962 16.664-39.913 40.135 10.317 2.649 18.634 27.39 18.634 27.39s16.45 42.195 17 42.436c35.526-22.789 78.667-27.356 78.667-27.356s-6.363-11.729-7.545-12.799c-.469-.421-1.049-.998-1.547-1.813l-.562-.724-.68-.899c-2.689-4.191-5.105-9.68-2.486-13.795.225-.352.393-.567.621-.909"/><path fill="#A41B20" d="M488.887 24.039l-.025-.059c-.693-.771-1.193-1.864-1.807-3.083l.004-.01c-1.072-2.083-1.895-4.354-2.73-6.669-8.893 9.587-23.264-4.649-31.762 6.955-6.049 10.127 15.936 42.072 34.275 42.23-.504-.69-1.037-1.41-1.549-2.155l-.449-.653.008-.008c-2.945-4.462-5.195-9.742-3.262-14.226.166-.393.367-.757.596-1.099"/><path fill="#B21E23" d="M474.576 39.574c2.219 3.004 4.572 3.827 7.609 5.689 11.705-5.676 17.73-10.155 17.73-10.155s-3.164-6.812-10.111-10.359c-.365-.187-.668-.46-.943-.769l.025.059c-7.134 4.948-20.921 6.53-14.31 15.535z"/><path fill="#C12026" d="M456.58 25.443c-.385 2.544 1.363 4.925 3.908 5.313 2.549.388 4.922-1.359 5.311-3.905.389-2.547-1.361-4.925-3.904-5.312-2.545-.391-4.924 1.363-5.315 3.904z"/><path fill="#B21E23" d="M344.328 104.008l.004-.012c-1.17-3.271-2.293-6.614-4.006-9.569-11.506-19.835-59.298-47.697-59.298-47.697s1.077 8.288 4.764 16.179l-8.795-2.752s2.9 4.964 7.737 9.695c-4.195-.191-7.845.4-7.845.4s3.39 4.034 7.537 5.998c-3.068.375-8.298 2.165-8.298 2.165s1.963 3.644 3.868 4.974c-16.272 6.185-21.962 16.664-39.913 40.135 10.317 2.649 18.634 27.39 18.634 27.39s16.45 42.195 17 42.436c35.527-22.789 78.667-27.357 78.667-27.357s-6.363-11.729-7.545-12.798c-.469-.421-1.049-.999-1.547-1.814l-.562-.724-.68-.899c-2.689-4.191-5.105-9.68-2.486-13.795.225-.351.393-.567.621-.909"/><path fill="#A41B20" d="M348.887 113.829l-.025-.059c-.693-.771-1.193-1.864-1.807-3.083l.004-.01c-1.072-2.083-1.895-4.354-2.73-6.668-8.893 9.586-23.264-4.65-31.762 6.955-6.049 10.126 15.936 42.072 34.275 42.23-.504-.69-1.037-1.41-1.549-2.155l-.449-.653.008-.008c-2.945-4.462-5.195-9.742-3.262-14.226.166-.392.367-.757.596-1.098"/><path fill="#B21E23" d="M334.576 129.364c2.219 3.003 4.572 3.827 7.609 5.689 11.705-5.676 17.73-10.156 17.73-10.156s-3.164-6.811-10.111-10.359c-.365-.187-.668-.46-.943-.769l.025.059c-7.134 4.949-20.921 6.53-14.31 15.536z"/><path fill="#C12026" d="M316.58 115.233c-.385 2.543 1.363 4.925 3.908 5.313 2.549.388 4.922-1.359 5.311-3.905.389-2.547-1.361-4.925-3.904-5.313-2.545-.39-4.924 1.363-5.315 3.905z"/><path fill="#B21E23" d="M344.328 283.76l.004-.014c-1.17-3.271-2.293-6.614-4.006-9.569-11.506-19.835-59.298-47.697-59.298-47.697s1.077 8.288 4.764 16.179l-8.795-2.752s2.9 4.964 7.737 9.695c-4.195-.191-7.845.4-7.845.4s3.39 4.034 7.537 5.998c-3.068.375-8.298 2.165-8.298 2.165s1.963 3.644 3.868 4.974c-16.272 6.185-21.962 16.666-39.913 40.138 10.317 2.646 18.634 27.388 18.634 27.388s16.45 42.195 17 42.435c35.527-22.786 78.667-27.356 78.667-27.356s-6.363-11.728-7.545-12.797c-.469-.423-1.049-1-1.547-1.815l-.562-.724-.68-.899c-2.689-4.191-5.105-9.68-2.486-13.795.225-.351.393-.567.621-.909"/><path fill="#A41B20" d="M348.887 293.579l-.025-.059c-.693-.771-1.193-1.865-1.807-3.082l.004-.012c-1.072-2.083-1.895-4.354-2.73-6.667-8.893 9.584-23.264-4.652-31.762 6.953-6.049 10.126 15.936 42.073 34.275 42.232-.504-.69-1.037-1.412-1.549-2.156l-.449-.654.008-.008c-2.945-4.46-5.195-9.742-3.262-14.226.166-.393.367-.757.596-1.099"/><path fill="#B21E23" d="M334.576 309.113c2.219 3.006 4.572 3.827 7.609 5.689 11.705-5.676 17.73-10.153 17.73-10.153s-3.164-6.813-10.111-10.361c-.365-.187-.668-.46-.943-.769l.025.059c-7.134 4.949-20.921 6.53-14.31 15.535z"/><path fill="#C12026" d="M316.58 294.983c-.385 2.543 1.363 4.927 3.908 5.313 2.549.388 4.922-1.357 5.311-3.905s-1.361-4.925-3.904-5.313c-2.545-.39-4.924 1.363-5.315 3.905z"/><path fill="#B21E23" d="M334.576 488.863c2.219 3.006 4.572 3.827 7.609 5.689 11.705-5.676 17.73-10.153 17.73-10.153s-3.164-6.813-10.111-10.36c-.365-.188-.668-.461-.943-.769l.025.058c-7.134 4.949-20.921 6.53-14.31 15.535z"/><path fill="#B21E23" d="M344.328 463.51l.004-.014c-1.17-3.271-2.293-6.613-4.006-9.568-11.506-19.834-59.298-47.697-59.298-47.697s1.077 8.289 4.764 16.179l-8.795-2.752s2.9 4.966 7.737 9.695c-4.195-.191-7.845.4-7.845.4s3.39 4.033 7.537 5.997c-3.068.375-8.298 2.167-8.298 2.167s1.963 3.644 3.868 4.972c-16.272 6.185-21.962 16.666-39.913 40.138 10.317 2.646 18.634 27.388 18.634 27.388s16.45 42.195 17 42.435c35.527-22.786 78.667-27.356 78.667-27.356s-6.363-11.728-7.545-12.797c-.469-.423-1.049-1-1.547-1.815l-.562-.724-.68-.899c-2.689-4.191-5.105-9.68-2.486-13.795.225-.351.393-.567.621-.909"/><path fill="#A41B20" d="M348.887 473.328l-.025-.058c-.693-.771-1.193-1.865-1.807-3.082l.004-.012c-1.072-2.083-1.895-4.354-2.73-6.667-8.893 9.585-23.264-4.651-31.762 6.954-6.049 10.126 15.936 42.072 34.275 42.231-.504-.69-1.037-1.412-1.549-2.156l-.449-.654.008-.008c-2.945-4.46-5.195-9.742-3.262-14.226.166-.393.367-.757.596-1.099"/><path fill="#C12026" d="M316.58 474.732c-.385 2.544 1.363 4.928 3.908 5.313 2.549.388 4.922-1.357 5.311-3.905.389-2.547-1.361-4.924-3.904-5.312-2.545-.39-4.924 1.363-5.315 3.904z"/></svg>