<?xml version="1.0" encoding="utf-8"?>
<!-- Generator: Adobe Illustrator 16.0.0, SVG Export Plug-In . SVG Version: 6.00 Build 0)  -->
<!DOCTYPE svg PUBLIC "-//W3C//DTD SVG 1.1//EN" "http://www.w3.org/Graphics/SVG/1.1/DTD/svg11.dtd">
<svg version="1.1" id="Layer_1" xmlns="http://www.w3.org/2000/svg" xmlns:xlink="http://www.w3.org/1999/xlink" x="0px" y="0px"
	 width="320px" height="391.525px" viewBox="0 0 320 391.525" enable-background="new 0 0 320 391.525" xml:space="preserve">
<path fill="#BB2123" d="M196,174.128c22-28,71,10,82.374-21.175l0.01-0.031c-3.126-8.733-6.129-17.662-10.699-25.55
	C236.968,74.402,109.346,0,109.346,0s2.866,22.126,12.707,43.201l-23.479-7.35c0,0,7.747,13.259,20.658,25.896
	c-11.196-0.518-20.946,1.066-20.946,1.066s9.055,10.77,20.12,16.013c-8.187,0.999-22.149,5.786-22.149,5.786
	s5.24,9.729,10.325,13.277C63.137,114.402,47.938,142.393,0,205.067c27.548,7.072,49.768,73.137,49.768,73.137
	s43.916,112.693,45.391,113.321c94.871-60.851,210.074-73.045,210.074-73.045s-17.565-30.801-20.155-34.185
	C236,269.128,179.853,201.173,196,174.128z"/>
<path fill="#0B0B0E" d="M193.553,171.522c-16.147,27.044,42.557,112.361,91.524,112.773c-1.339-1.835-2.755-3.77-4.125-5.752
	l-1.198-1.752l0.01-0.026c-7.863-11.907-13.873-25.996-8.7-37.987c0.439-1.042,0.982-2.019,1.585-2.928
	c-7.648-5.723-12.723-7.701-18.648-15.723c-17.654-24.047,21-26,36.547-40.948l-0.072-0.158c-1.853-2.06-3.18-4.983-4.821-8.231
	l0.01-0.034c-2.86-5.56-5.062-11.623-7.289-17.804C254.622,178.549,216.248,140.533,193.553,171.522z"/>
<path fill="#E58626" d="M252.331,220.658c5.926,8.021,12.206,10.219,20.317,15.192C303.903,220.699,320,208.736,320,208.736
	s-8.451-18.191-27.005-27.669c-0.973-0.497-1.778-1.218-2.521-2.045l0.072,0.158C271.491,192.388,234.677,196.611,252.331,220.658z"
	/>
<path fill="#FFFFFF" d="M205.173,184.984c-1.03,6.792,3.64,13.149,10.438,14.18c6.799,1.038,13.135-3.629,14.182-10.427
	c1.03-6.799-3.64-13.149-10.427-14.185C212.558,173.516,206.208,178.191,205.173,184.984z"/>
</svg>
