<?xml version="1.0" encoding="utf-8"?>
<!-- Generator: Adobe Illustrator 16.0.0, SVG Export Plug-In . SVG Version: 6.00 Build 0)  -->
<!DOCTYPE svg PUBLIC "-//W3C//DTD SVG 1.1//EN" "http://www.w3.org/Graphics/SVG/1.1/DTD/svg11.dtd">
<svg version="1.1" id="Layer_1" xmlns="http://www.w3.org/2000/svg" xmlns:xlink="http://www.w3.org/1999/xlink" x="0px" y="0px"
	 width="320px" height="235.798px" viewBox="0 0 320 235.798" enable-background="new 0 0 320 235.798" xml:space="preserve">
<polygon fill="#E58626" points="0,68.756 20.148,86.724 22.309,47.906 "/>
<path fill="#BB2123" d="M66.963,0C52.871,4.817,24.5,17.215,18.662,39.681c-10.604,40.792-0.984,85.843,47.707,117.007
	c59.191,37.885,127.128,8.952,133.016-34.465L74.193,27.32L66.963,0z"/>
<g>
	<path fill="#BB2123" d="M14.832,66.178l0.232,10.338C14.818,73.073,14.738,69.624,14.832,66.178z"/>
</g>
<path fill="#BB2123" d="M216.057,129.92L320,177.918l-41.387,14.16c0,0-9.508,5.658-27.377-2.593l-117.873-63.954l12.861-27.861
	L216.057,129.92z"/>
<path fill="#010002" d="M14.832,66.178c0.105-4.076,0.449-8.147,1.004-12.196l42.152,3.286l-42.246,25.79
	c-0.303-2.176-0.52-4.358-0.678-6.541L14.832,66.178z"/>
<path fill="#FFFFFF" d="M20.916,65.713c0.535,2.787,3.232,4.61,6.021,4.071c2.787-0.535,4.609-3.235,4.074-6.021
	c-0.539-2.789-3.238-4.611-6.023-4.074C22.199,60.229,20.375,62.927,20.916,65.713z"/>
<rect x="117.891" y="155.337" fill="#BB2123" width="3.412" height="71.629"/>
<rect x="105.791" y="164.166" fill="#BB2123" width="3.41" height="71.632"/>
</svg>
