<?xml version="1.0" encoding="utf-8"?>
<!-- Generator: Adobe Illustrator 18.1.1, SVG Export Plug-In . SVG Version: 6.00 Build 0)  -->
<svg version="1.1" id="cardinal" xmlns="http://www.w3.org/2000/svg" xmlns:xlink="http://www.w3.org/1999/xlink" x="0px" y="0px"
	 viewBox="0 195.8 1200 808.4" enable-background="new 0 195.8 1200 808.4" xml:space="preserve">
<path id="cardinal-beak" fill="#F4B13B" d="M1200,196.1L994.3,400.2c0-0.1,0-0.3-0.1-0.3c-88-48.1-120-116.7-119.6-203.8L1200,196.1
	L1200,196.1z"/>
<path id="cardinal-head" fill="#B53026" d="M547.1,196.1h327.1c0,160-162.9,162.9-162.9,162.9L547.1,196.1z"/>
<path id="cardinal-face" d="M994.3,400.2c0,0-71.9,150.4-120.1,151.2c-63.1,1-162.9-192.3-162.9-192.3l162.9-162.9h0.4
	c55.8,55.9,97.3,125.7,119.7,203.6C994.3,399.9,994.3,400,994.3,400.2z"/>
<polygon id="cardinal-tail" fill="#B53026" points="337.2,911.6 0,573.4 0,911.6 "/>
<g id="cardinal-body">
	<polygon fill="#B53026" points="874.7,196.1 874.1,196.1 874.4,195.8 	"/>
	<path fill="#B53026" d="M1012.5,530.2c0,261.8-212.3,474-474,474c-130.4,0-248.6-52.8-334.4-138l507.3-507.3L873.5,520l120.7-120
		C1006.1,441.5,1012.5,485,1012.5,530.2z"/>
</g>
<g id="cardinal-wing">
	<path fill="#D13737" d="M203.9,866.3c58,57.7,138,93.5,226.4,93.5c177.2,0,321.1-143.7,321.1-321.1c0-88.4-35.6-168.3-93.5-226.4
		L203.9,866.3z"/>
</g>
<circle id="cardinal-eyeball" fill="#FFFFFF" cx="874.4" cy="285.7" r="26.7"/>
</svg>
