<?xml version="1.0" encoding="utf-8"?>
<!-- Generator: Adobe Illustrator 16.0.0, SVG Export Plug-In . SVG Version: 6.00 Build 0)  -->
<!DOCTYPE svg PUBLIC "-//W3C//DTD SVG 1.1//EN" "http://www.w3.org/Graphics/SVG/1.1/DTD/svg11.dtd">
<svg version="1.1" id="Layer_1" xmlns="http://www.w3.org/2000/svg" xmlns:xlink="http://www.w3.org/1999/xlink" x="0px" y="0px"
	 width="64px" height="78.307px" viewBox="127.999 145.453 64 78.307" enable-background="new 127.999 145.453 64 78.307"
	 xml:space="preserve">
<path fill="#971E23" d="M183.675,176.044l0.002-0.006c-0.625-1.747-1.225-3.532-2.14-5.11c-6.146-10.594-31.67-25.474-31.67-25.474
	s0.576,4.426,2.544,8.641l-4.697-1.47c0,0,1.548,2.651,4.132,5.178c-2.24-0.102-4.19,0.214-4.19,0.214s1.811,2.154,4.025,3.204
	c-1.639,0.2-4.432,1.156-4.432,1.156s1.048,1.946,2.066,2.656c-8.69,3.304-11.729,8.9-21.317,21.436
	c5.51,1.415,9.952,14.629,9.952,14.629s8.786,22.535,9.079,22.664c18.975-12.172,42.015-14.611,42.015-14.611
	s-3.398-6.264-4.029-6.835c-0.251-0.225-0.561-0.534-0.826-0.969l-0.3-0.387l-0.364-0.48c-1.436-2.238-2.726-5.169-1.327-7.367
	c0.12-0.188,0.21-0.303,0.332-0.486"/>
<path fill="#691B20" d="M186.109,181.289l-0.014-0.031c-0.37-0.412-0.637-0.996-0.965-1.646l0.002-0.006
	c-0.573-1.112-1.012-2.325-1.458-3.561c-4.75,5.12-12.425-2.483-16.964,3.714c-3.23,5.408,8.512,22.471,18.306,22.555
	c-0.269-0.369-0.554-0.753-0.827-1.151l-0.239-0.349l0.004-0.004c-1.572-2.384-2.774-5.203-1.742-7.598
	c0.089-0.209,0.196-0.404,0.318-0.586"/>
<path fill="#EC9843" d="M178.466,189.586c1.186,1.604,2.442,2.043,4.064,3.038c6.251-3.031,9.469-5.424,9.469-5.424
	s-1.689-3.637-5.399-5.532c-0.195-0.1-0.357-0.246-0.504-0.411l0.013,0.031C182.299,183.931,174.935,184.777,178.466,189.586
	L178.466,189.586z"/>
<path fill="#FFFFFF" d="M168.854,182.039c-0.205,1.358,0.729,2.63,2.088,2.837c1.36,0.208,2.628-0.726,2.836-2.085
	c0.207-1.36-0.728-2.63-2.085-2.837C170.334,179.745,169.063,180.682,168.854,182.039z"/>
</svg>
