<svg xmlns="http://www.w3.org/2000/svg" viewBox="0 195.8 1200 808.4" enable-background="new 0 195.8 1200 808.4"><path fill="#F4B13B" d="M1200 196.1L994.3 400.2c0-.1 0-.3-.1-.3-88-48.1-120-116.7-119.6-203.8H1200z"/><path fill="#B53026" d="M547.1 196.1h327.1c0 160-162.9 162.9-162.9 162.9L547.1 196.1z"/><path d="M994.3 400.2s-71.9 150.4-120.1 151.2c-63.1 1-162.9-192.3-162.9-192.3l162.9-162.9h.4c55.8 55.9 97.3 125.7 119.7 203.6v.4z"/><path fill="#B53026" d="M337.2 911.6L0 573.4v338.2z"/><g fill="#B53026"><path d="M874.7 196.1h-.6l.3-.3zM1012.5 530.2c0 261.8-212.3 474-474 474-130.4 0-248.6-52.8-334.4-138l507.3-507.3L873.5 520l120.7-120c11.9 41.5 18.3 85 18.3 130.2z"/></g><path fill="#D13737" d="M203.9 866.3c58 57.7 138 93.5 226.4 93.5 177.2 0 321.1-143.7 321.1-321.1 0-88.4-35.6-168.3-93.5-226.4l-454 454z"/><circle fill="#fff" cx="874.4" cy="285.7" r="26.7"/></svg>