<?xml version="1.0" encoding="utf-8"?>
<!-- Generator: Adobe Illustrator 16.0.0, SVG Export Plug-In . SVG Version: 6.00 Build 0)  -->
<!DOCTYPE svg PUBLIC "-//W3C//DTD SVG 1.1//EN" "http://www.w3.org/Graphics/SVG/1.1/DTD/svg11.dtd">
<svg version="1.1" id="Layer_1" xmlns="http://www.w3.org/2000/svg" xmlns:xlink="http://www.w3.org/1999/xlink" x="0px" y="0px"
	 width="320px" height="391.517px" viewBox="0 0 320 391.517" enable-background="new 0 0 320 391.517" xml:space="preserve">
<path fill="#C12026" d="M278.376,152.951l0.01-0.032c-3.128-8.732-6.13-17.662-10.699-25.55C236.969,74.401,109.346,0,109.346,0
	s2.866,22.125,12.707,43.2l-23.479-7.35c0,0,7.745,13.258,20.661,25.896c-11.2-0.518-20.948,1.067-20.948,1.067
	s9.057,10.77,20.123,16.011c-8.19,1-22.152,5.787-22.152,5.787s5.24,9.729,10.323,13.277C63.134,114.4,47.938,142.391,0,205.063
	c27.549,7.075,49.768,73.135,49.768,73.135s43.917,112.691,45.391,113.319c94.872-60.849,210.074-73.044,210.074-73.044
	s-16.996-31.323-20.153-34.178c-1.246-1.131-2.794-2.669-4.127-4.843l-1.512-1.927l-1.809-2.414
	c-7.171-11.181-13.634-25.844-6.642-36.826c0.605-0.945,1.056-1.526,1.657-2.437"/>
<path fill="#C12026" d="M280.953,278.542"/>
<path fill="#C12026" d="M285.655,170.789"/>
<path fill="#000001" d="M290.55,179.176l-0.073-0.157c-1.854-2.06-3.18-4.983-4.821-8.23l0.01-0.034
	c-2.859-5.559-5.062-11.623-7.289-17.803c-23.753,25.596-62.126-12.419-84.821,18.569c-16.147,27.045,42.557,112.356,91.525,112.775
	c-1.339-1.842-2.757-3.771-4.127-5.753l-1.198-1.752l0.012-0.025c-7.865-11.913-13.875-26.003-8.702-37.986
	c0.438-1.042,0.982-2.02,1.584-2.93"/>
<g>
	<path fill="#E98824" d="M252.332,220.658c5.926,8.022,12.207,10.219,20.316,15.191C303.904,220.7,320,208.737,320,208.737
		s-8.45-18.195-27.004-27.673c-0.972-0.497-1.777-1.218-2.52-2.045l0.073,0.157C271.494,192.386,234.68,196.609,252.332,220.658z"/>
</g>
<path fill="#FFFFFF" d="M204.281,182.928c-1.031,6.793,3.639,13.149,10.431,14.18c6.805,1.039,13.147-3.628,14.184-10.428
	c1.035-6.798-3.64-13.149-10.428-14.185C211.67,171.461,205.32,176.135,204.281,182.928z"/>
</svg>
